<svg width="28" height="34" viewBox="0 0 28 34" fill="none" xmlns="http://www.w3.org/2000/svg">
<g id="apple">
<g id="Group">
<path id="Vector" fill-rule="evenodd" clip-rule="evenodd" d="M25.4676 28.5486C26.4193 27.0969 26.7741 26.355 27.5 24.7258C22.1448 22.6934 21.2899 15.0639 26.5806 12.1444C24.9676 10.112 22.6933 8.93454 20.548 8.93454C18.9995 8.93454 17.9349 9.33781 16.9832 9.7088C16.1767 10.0153 15.4509 10.2895 14.5476 10.2895C13.5798 10.2895 12.7249 9.98301 11.8216 9.66041C10.8377 9.30555 9.80536 8.93454 8.51497 8.93454C6.11159 8.93454 3.54693 10.4024 1.9178 12.9187C-0.372662 16.4673 0.0305923 23.1128 3.72436 28.7906C5.04702 30.823 6.82132 33.0973 9.12791 33.1295C10.0957 33.1457 10.7248 32.8554 11.4184 32.5489C12.2087 32.194 13.0636 31.8069 14.5637 31.8069C16.0638 31.7907 16.9026 32.194 17.6929 32.5489C18.3704 32.8554 18.9833 33.1457 19.935 33.1295C22.2739 33.0973 24.1449 30.581 25.4676 28.5486Z" fill="black"/>
</g>
<path id="Vector_2" fill-rule="evenodd" clip-rule="evenodd" d="M20.209 0.869827C20.4671 2.64413 19.7412 4.40232 18.7895 5.6282C17.7734 6.95086 15.9991 7.98315 14.2893 7.91863C13.9828 6.20885 14.7732 4.45067 15.741 3.27318C16.8217 1.98278 18.6444 0.982737 20.209 0.869827Z" fill="black"/>
</g>
</svg>
