<svg width="38" height="37" viewBox="0 0 38 37" fill="none" xmlns="http://www.w3.org/2000/svg">
<g id="vuesax/bold/paypal">
<g id="paypal">
<path id="Vector" d="M29.7919 10.7917C29.7919 11.0692 29.7765 11.3312 29.7456 11.5933C29.5606 13.8287 28.5739 15.8483 27.0785 17.3283C25.4135 19.0087 23.101 20.0417 20.5419 20.0417H15.7165C14.9456 20.0417 14.2981 20.6121 14.1902 21.3675L13.0185 29.5075C12.926 30.1088 12.4944 30.6021 11.924 30.7563C11.7852 30.8179 11.6465 30.8333 11.4923 30.8333H8.48604C7.5302 30.8333 6.80563 29.9854 6.9598 29.045L10.6444 6.95293C11.0144 4.71751 12.9415 3.08333 15.2077 3.08333H22.0835C26.3385 3.08333 29.7919 6.53666 29.7919 10.7917Z" fill="#1D274E"/>
<path id="Vector_2" d="M32.875 16.9578C32.875 19.0853 32.0116 21.0124 30.6241 22.4153C29.2212 23.8028 27.2941 24.6661 25.1666 24.6661H21.852C21.0966 24.6661 20.4491 25.2057 20.3258 25.9611L19.2158 32.6212C19.0925 33.3766 18.4449 33.9161 17.6895 33.9161H13.1725C12.895 33.9161 12.6483 33.8545 12.4324 33.7312C12.0933 33.5462 12.3091 33.0991 12.6791 32.9449C14.0666 32.4978 15.0841 31.3107 15.3 29.8307L16.2866 23.0166C16.3483 22.6311 16.6721 22.3536 17.0421 22.3536H20.5416C23.6404 22.3536 26.5541 21.1511 28.7124 18.9774C29.992 17.7132 30.9478 16.1562 31.5028 14.4758C31.6262 14.0903 32.135 14.0132 32.3045 14.3678C32.6745 15.1695 32.875 16.0328 32.875 16.9578Z" fill="#3192C1"/>
</g>
</g>
</svg>
