<svg width="52" height="17" viewBox="0 0 52 17" fill="none" xmlns="http://www.w3.org/2000/svg">
<g id="Logo">
<path id="Vector" d="M22.3992 16.5031H18.2785L20.8534 0.505524H24.9741L22.3992 16.5031Z" fill="#191D6B"/>
<path id="Vector_2" d="M14.8102 0.505524L10.8801 11.5087L10.4142 9.13771L9.02938 1.93067C9.02938 1.93067 8.85998 0.505524 7.07279 0.505524H0.576231L0.5 0.775146C2.02077 1.16103 3.47452 1.77869 4.81128 2.60686L8.39413 16.5031H12.6885L19.2443 0.505524H14.8102Z" fill="#191D6B"/>
<path id="Vector_3" d="M47.2293 16.5029H51.0155L47.7164 0.505348H44.4003C43.9989 0.474183 43.5981 0.57315 43.2562 0.787874C42.9142 1.0026 42.6489 1.3219 42.4988 1.69939L36.3495 16.5029H40.6481L41.4951 14.1277H46.7466L47.2293 16.5029ZM42.6936 10.8451L44.862 4.85354L46.0774 10.8451H42.6936Z" fill="#191D6B"/>
<path id="Vector_4" d="M36.6718 4.35296L37.2605 0.929183C36.0707 0.494099 34.8197 0.254255 33.5548 0.21875C31.5093 0.21875 26.6517 1.12177 26.6517 5.51704C26.6517 9.65124 32.3521 9.7026 32.3521 11.8724C32.3521 14.0422 27.2404 13.6528 25.5506 12.3004L24.9365 15.874C26.4103 16.4996 27.9968 16.8086 29.5951 16.7813C32.4071 16.7813 36.6507 15.309 36.6507 11.3032C36.6507 7.14333 30.8995 6.75388 30.8995 4.94784C30.8995 3.1418 34.9101 3.36862 36.6718 4.35296Z" fill="#191D6B"/>
<path id="Vector_5" d="M10.4142 9.14199L9.02938 1.93067C9.02938 1.93067 8.85998 0.505524 7.07279 0.505524H0.576231L0.5 0.775146C2.73734 1.35158 4.82491 2.41003 6.61964 3.87794C8.32327 5.26229 9.63273 7.07883 10.4142 9.14199V9.14199Z" fill="#191D6B"/>
</g>
</svg>
